<svg xmlns="http://www.w3.org/2000/svg" xmlns:xlink="http://www.w3.org/1999/xlink" width="1080" zoomAndPan="magnify" viewBox="0 0 810 809.999993" height="1080" preserveAspectRatio="xMidYMid meet" version="1.0"><defs><clipPath id="8d96f65a39"><path d="M 82 110.160156 L 728 110.160156 L 728 728.910156 L 82 728.910156 Z M 82 110.160156 " clip-rule="nonzero"/></clipPath></defs><g clip-path="url(#8d96f65a39)"><path fill="#ffffff" d="M 163.441406 188.226562 C 161.835938 188.226562 160.460938 189.601562 160.460938 191.203125 L 160.460938 532.445312 C 160.460938 534.050781 161.835938 535.367188 163.441406 535.367188 L 205.085938 535.367188 C 217.058594 535.367188 226.738281 545.105469 226.738281 557.074219 L 226.738281 647.453125 C 226.738281 648.65625 227.425781 649.6875 228.511719 650.144531 C 230.519531 650.433594 231.207031 650.089844 231.835938 649.515625 L 344.167969 541.4375 C 348.175781 537.542969 353.558594 535.367188 359.175781 535.367188 L 646.558594 535.367188 C 648.164062 535.367188 649.539062 534.050781 649.539062 532.445312 L 649.539062 191.203125 C 649.539062 189.601562 648.164062 188.226562 646.558594 188.226562 Z M 229.714844 728.496094 C 218.660156 728.496094 207.949219 726.265625 197.867188 721.96875 C 168.023438 709.3125 148.660156 680.042969 148.660156 647.453125 L 148.660156 612.117188 C 110.96875 605.183594 82.386719 572.082031 82.386719 532.445312 L 82.386719 191.203125 C 82.386719 146.53125 118.761719 110.160156 163.441406 110.160156 L 646.558594 110.160156 C 691.238281 110.160156 727.613281 146.53125 727.613281 191.203125 L 727.613281 532.445312 C 727.613281 577.121094 691.238281 613.488281 646.558594 613.488281 L 381.914062 613.488281 L 285.910156 705.816406 C 270.671875 720.421875 250.738281 728.496094 229.714844 728.496094 " fill-opacity="1" fill-rule="nonzero"/></g><path fill="#ffffff" d="M 558.402344 251.914062 C 542.648438 235.304688 516.128906 235.304688 500.375 251.914062 L 405 346.417969 L 363.527344 387.886719 L 309.625 334.792969 C 293.929688 318.238281 267.40625 318.238281 251.597656 334.792969 C 235.042969 350.542969 235.042969 377.058594 251.597656 392.8125 L 334.542969 475.746094 C 341.988281 484.050781 352.757812 488.171875 363.527344 488.171875 C 374.355469 488.171875 385.121094 484.050781 392.570312 475.746094 L 558.402344 309.933594 C 574.957031 294.183594 574.957031 267.664062 558.402344 251.914062 " fill-opacity="1" fill-rule="nonzero"/></svg>